<svg xmlns="http://www.w3.org/2000/svg" viewBox="0 0 64 64">
  <defs>
    <filter id="glow" x="-50%" y="-50%" width="200%" height="200%">
      <feGaussianBlur in="SourceAlpha" stdDeviation="3" result="pinkBlur"/>
      <feFlood flood-color="#ff6b9d" flood-opacity="0.65" result="pinkColor"/>
      <feComposite in="pinkColor" in2="pinkBlur" operator="in" result="pinkGlow"/>
      <feGaussianBlur in="SourceAlpha" stdDeviation="1.5" result="cyanBlur"/>
      <feFlood flood-color="#1de9f6" flood-opacity="0.75" result="cyanColor"/>
      <feComposite in="cyanColor" in2="cyanBlur" operator="in" result="cyanGlow"/>
      <feMerge>
        <feMergeNode in="pinkGlow"/>
        <feMergeNode in="cyanGlow"/>
        <feMergeNode in="SourceGraphic"/>
      </feMerge>
    </filter>
  </defs>
  <rect width="64" height="64" rx="12" fill="#080d14"/>
  <g transform="translate(8 8) scale(2)" stroke="#eaf3f7" stroke-width="2" stroke-linecap="round" stroke-linejoin="round" fill="none" filter="url(#glow)">
    <path d="M14.4 14.4 9.6 9.6"/>
    <path d="M18.657 21.485a2 2 0 1 1-2.829-2.828l-1.767 1.768a2 2 0 1 1-2.829-2.829l6.364-6.364a2 2 0 1 1 2.829 2.829l-1.768 1.767a2 2 0 1 1 2.828 2.829z"/>
    <path d="m21.5 21.5-1.4-1.4"/>
    <path d="M3.9 3.9 2.5 2.5"/>
    <path d="M6.404 12.768a2 2 0 1 1-2.829-2.829l1.768-1.767a2 2 0 1 1-2.828-2.829l2.828-2.828a2 2 0 1 1 2.829 2.828l1.767-1.768a2 2 0 1 1 2.829 2.829z"/>
  </g>
</svg>
